{"title":"Aloha.2015.1080p.BluRay.H264.AAC-RARBG","uid":12212123,"size":2180165052,"categoryP":"video","categoryS":"hd___movies","magnet":"?xt=urn:btih:d9d2e6659a835c64ee9459e03decd61e43f54de7&amp;dn=Aloha.2015.1080p.BluRay.H264.AAC-RARBG&amp;tr=udp%3A%2F%2Ftracker.openbittorrent.com%3A80&amp;tr=udp%3A%2F%2Fopen.demonii.com%3A1337&amp;tr=udp%3A%2F%2Ftracker.coppersurfer.tk%3A6969&amp;tr=udp%3A%2F%2Fexodus.desync.com%3A6969","seeders":3,"leechers":0,"uploader":"vickey1992","files":6,"time":1439079607,"description":"Video\nID                                       : 1\nFormat                                   : AVC\nFormat/Info                              : Advanced Video Codec\nFormat profile                           : &lt;a class=&quot;__cf_email__&quot; href=&quot;/cdn-cgi/l/email-protection&quot; data-cfemail=&quot;276f4e404f676b130916&quot;&gt;[email&amp;#160;protected]&lt;/a&gt;&lt;script data-cfhash='f9e31' type=&quot;text/javascript&quot;&gt;\n/* &lt;![CDATA[ */!function(){try{var t=&quot;currentScript&quot;in document?document.currentScript:function(){for(var t=document.getElementsByTagName(&quot;script&quot;),e=t.length;e--;)if(t[e].getAttribute(&quot;data-cfhash&quot;))return t[e]}();if(t&amp;&amp;t.previousSibling){var e,r,n,i,c=t.previousSibling,a=c.getAttribute(&quot;data-cfemail&quot;);if(a){for(e=&quot;&quot;,r=parseInt(a.substr(0,2),16),n=2;a.length-n;n+=2)i=parseInt(a.substr(n,2),16)^r,e+=String.fromCharCode(i);e=document.createTextNode(e),c.parentNode.replaceChild(e,c)}t.parentNode.removeChild(t);}}catch(u){}}()/* ]]&gt; */&lt;/script&gt;\nFormat settings, CABAC                   : Yes\nFormat settings, ReFrames                : 4 frames\nCodec ID                                 : avc1\nCodec ID/Info                            : Advanced Video Coding\nDuration                                 : 1h 44mn\nBit rate                                 : 2 500 Kbps\nWidth                                    : 1 920 pixels\nHeight                                   : 1 040 pixels\nDisplay aspect ratio                     : 1.85:1\nFrame rate mode                          : Constant\nFrame rate                               : 23.976 fps\nColor space                              : YUV\nChroma subsampling                       : 4:2:0\nBit depth                                : 8 bits\nScan type                                : Progressive\nBits/(Pixel*Frame)                       : 0.052\nStream size                              : 1.83 GiB (92%)\nWriting library                          : x264 core 144 r2525M 40bb568\nEncoding settings                        : cabac=1 / ref=4 / deblock=1:-1:-1 / analyse=0x3:0x113 / me=umh / subme=9 / psy=1 / psy_rd=1.00:0.15 / mixed_ref=1 / me_range=24 / chroma_me=1 / trellis=2 / 8x8dct=1 / cqm=0 / deadzone=21,11 / fast_pskip=1 / chroma_qp_offset=-3 / threads=32 / lookahead_threads=4 / sliced_threads=0 / nr=0 / decimate=1 / interlaced=0 / bluray_compat=0 / constrained_intra=0 / bframes=3 / b_pyramid=2 / b_adapt=1 / b_bias=0 / direct=1 / weightb=1 / open_gop=0 / weightp=2 / keyint=250 / keyint_min=25 / scenecut=40 / intra_refresh=0 / rc_lookahead=50 / rc=2pass / mbtree=1 / bitrate=2500 / ratetol=1.0 / qcomp=0.60 / qpmin=0 / qpmax=69 / qpstep=4 / cplxblur=20.0 / qblur=0.5 / vbv_maxrate=31250 / vbv_bufsize=31250 / nal_hrd=none / filler=0 / ip_ratio=1.40 / aq=3:1.00\nEncoded date                             : UTC 1904-01-01 00:00:00\nTagged date                              : UTC 1904-01-01 00:00:00\n\nAudio\nID                                       : 2\nFormat                                   : AAC\nFormat/Info                              : Advanced Audio Codec\nFormat profile                           : LC\nCodec ID                                 : 40\nDuration                                 : 1h 44mn\nBit rate mode                            : Constant\nBit rate                                 : 224 Kbps\nChannel(s)                               : 2 channels\nChannel(s)_Original                      : 6 channels\nChannel positions                        : Front: L C R, Side: L R, LFE\nSampling rate                            : 48.0 KHz\nCompression mode                         : Lossy\nStream size                              : 168 MiB (8%)\nLanguage                                 : English\nEncoded date                             : UTC 1904-01-01 00:00:00\nTagged date                              : UTC 1904-01-01 00:00:00\n\nMenu #1\nID                                       : 3\nCodec ID                                 : text\nDuration                                 : 1h 44mn\nLanguage                                 : English\nEncoded date                             : UTC 1904-01-01 00:00:00\nTagged date                              : UTC 1904-01-01 00:00:00\nBit rate mode                            : CBR\n00:00:00.000                             : 00:00:00.000\n00:04:42.992                             : 00:04:42.949\n00:10:59.994                             : 00:10:59.951\n00:20:02.536                             : 00:20:02.493\n00:27:07.794                             : 00:27:07.751\n00:33:25.797                             : 00:33:25.754\n00:40:01.984                             : 00:40:01.941\n00:46:40.674                             : 00:46:40.631\n00:51:32.049                             : 00:51:32.006\n00:56:22.380                             : 00:56:22.337\n01:05:08.739                             : 01:05:08.696\n01:11:08.641                             : 01:11:08.598\n01:18:44.179                             : 01:18:44.136\n01:25:36.466                             : 01:25:36.423\n01:31:43.332                             : 01:31:43.289\n01:36:29.702                             : 01:36:29.659\n\nMenu #2\n00:00:00.043                             : 00:00:00.000\n00:04:42.992                             : 00:04:42.949\n00:10:59.994                             : 00:10:59.951\n00:20:02.536                             : 00:20:02.493\n00:27:07.794                             : 00:27:07.751\n00:33:25.797                             : 00:33:25.754\n00:40:01.984                             : 00:40:01.941\n00:46:40.674                             : 00:46:40.631\n00:51:32.049                             : 00:51:32.006\n00:56:22.380                             : 00:56:22.337\n01:05:08.739                             : 01:05:08.696\n01:11:08.641                             : 01:11:08.598\n01:18:44.179                             : 01:18:44.136\n01:25:36.466                             : 01:25:36.423\n01:31:43.332                             : 01:31:43.289\n01:36:29.702                             : 01:36:29.659","torrent":{"xt":"urn:btih:d9d2e6659a835c64ee9459e03decd61e43f54de7","amp;dn":"Aloha.2015.1080p.BluRay.H264.AAC-RARBG","amp;tr":["udp%3A%2F%2Ftracker.openbittorrent.com%3A80","udp%3A%2F%2Fopen.demonii.com%3A1337","udp%3A%2F%2Ftracker.coppersurfer.tk%3A6969","udp%3A%2F%2Fexodus.desync.com%3A6969"],"infoHash":"d9d2e6659a835c64ee9459e03decd61e43f54de7","infoHashBuffer":{"type":"Buffer","data":[217,210,230,101,154,131,92,100,238,148,89,224,61,236,214,30,67,245,77,231]},"announce":[],"urlList":[]}}